<svg viewBox="0 0 500 500" xmlns="http://www.w3.org/2000/svg"><g fill="none" fill-rule="evenodd"><path d="m257.81 466.56c-52.926 0-101.32-19.34-138.73-51.33l-92.08 12.579 35.572-87.8c-12.394-27.347-19.347-57.706-19.347-89.73 0-119.44 96.07-216.28 214.58-216.28 118.5 0 214.56 96.84 214.56 216.28 0 119.46-96.06 216.28-214.56 216.28m117.17-216.9v-.602c0-62.41-44.01-106.91-119.9-106.91h-81.962v216.28h80.75c76.48.003 121.11-46.36 121.11-108.76m-118.99 55.627h-23.973v-109.99h23.973c35.21 0 58.58 20.07 58.58 54.694v.602c0 34.912-23.371 54.691-58.58 54.691" fill="#2e9fff"/></g></svg>